
<svg width="262px" height="67px" viewBox="0 0 262 67" version="1.1" xmlns="http://www.w3.org/2000/svg" xmlns:xlink="http://www.w3.org/1999/xlink">
    <!-- Generator: Sketch 42 (36781) - http://www.bohemiancoding.com/sketch -->
    <title>paypal</title>
    <desc>Created with Sketch.</desc>
    <defs></defs>
    <g id="Page-1" stroke="none" stroke-width="1" fill="none" fill-rule="evenodd">
        <g id="paypal" fill-rule="nonzero">
            <path d="M202.527778,17.3833333 L188.45,17.3833333 C187.52254,17.5523253 186.7454,18.1828353 186.388889,19.0555556 L180.594444,55.4944444 C180.540532,55.8382177 180.654169,56.1870535 180.900224,56.4331089 C181.14628,56.6791644 181.495116,56.7928013 181.838889,56.7388889 L189.305556,56.7388889 C189.649329,56.7928013 189.998165,56.6791644 190.24422,56.4331089 C190.490275,56.1870535 190.603912,55.8382177 190.55,55.4944444 L192.222222,45.15 C192.344306,44.1271006 193.257233,43.3864236 194.283333,43.4777778 L198.833333,43.4777778 C208.348148,43.4777778 213.727778,38.9277778 214.972222,29.8277778 C215.800915,26.6968955 215.187634,23.3595061 213.3,20.7277778 C210.199798,18.4128962 206.392801,17.2446842 202.527778,17.4222222 M204.2,31.1111111 C203.383333,36.0888889 199.65,36.0888889 195.916667,36.0888889 L193.427778,36.0888889 L195.1,26.5611111 C195.1,26.1333333 195.527778,25.7444444 196.344444,25.7444444 L197.161111,25.7444444 C199.65,25.7444444 202.138889,25.7444444 203.383333,27.4166667 C204.2,27.8444444 204.2,29.0888889 204.2,31.3055556" id="Shape" fill="#139AD6"></path>
            <path d="M101.105556,17.3833333 L87.0277778,17.3833333 C86.1003176,17.5523253 85.3231774,18.1828353 84.9666667,19.0555556 L79.1722222,55.4944444 C79.1183098,55.8382177 79.2319468,56.1870535 79.4780022,56.4331089 C79.7240577,56.6791644 80.0728935,56.7928013 80.4166667,56.7388889 L87.0277778,56.7388889 C87.9552379,56.5698969 88.7323781,55.939387 89.0888889,55.0666667 L90.7611111,45.1111111 C90.8831944,44.0882117 91.7961219,43.3475347 92.8222222,43.4388889 L97.3722222,43.4388889 C106.887037,43.4388889 112.266667,38.8888889 113.511111,29.7888889 C114.339804,26.6580066 113.726523,23.3206172 111.838889,20.6888889 C108.771822,18.3094443 104.940472,17.1337591 101.066667,17.3833333 M102.738889,31.1111111 C102,36.0111111 98.1111111,36.0111111 94.4555556,36.0111111 L92.3944444,36.0111111 L94.2222222,26.4833333 C94.2222222,26.0555556 94.65,25.6666667 95.4666667,25.6666667 L96.2833333,25.6666667 C98.7722222,25.6666667 101.261111,25.6666667 102.505556,27.3388889 C103.24335,28.4987602 103.401366,29.9352655 102.933333,31.2277778" id="Shape" fill="#263B80"></path>
            <path d="M143.727778,30.6444444 L137,30.6444444 C136.572222,30.6444444 135.755556,31.0722222 135.755556,31.4611111 L135.327778,33.5222222 L134.9,32.7055556 C132.87414,30.6189655 130.020559,29.5488725 127.122222,29.7888889 C119.370185,29.9953175 112.896953,35.76208 111.8,43.4388889 C111.022356,47.0859971 111.937389,50.8891017 114.288889,53.7833333 C116.511029,56.1940172 119.738002,57.4185381 123,57.0888889 C126.57077,57.1324025 130.007312,55.7297321 132.527778,53.2 L132.1,55.2611111 C132.046088,55.6048843 132.159725,55.9537201 132.40578,56.1997756 C132.651835,56.445831 133.000671,56.559468 133.344444,56.5055556 L139.566667,56.5055556 C140.494127,56.3365636 141.271267,55.7060536 141.627778,54.8333333 L145.516667,31.5 C145.088889,31.0722222 144.272222,30.2555556 143.844444,30.2555556 M134.316667,43.5166667 C133.645422,47.3006808 130.381614,50.0749178 126.538889,50.1277778 C124.8652,50.166577 123.239119,49.5689573 121.988889,48.4555556 C121.090381,46.9561033 120.657268,45.2236509 120.744444,43.4777778 C121.181248,40.9159238 122.931802,38.7719004 125.354517,37.8315044 C127.777232,36.8911084 130.515856,37.2926223 132.566667,38.8888889 C133.727941,40.2800934 134.324708,42.0565166 134.238889,43.8666667" id="Shape" fill="#263B80"></path>
            <path d="M244.761111,30.6444444 L238.111111,30.6444444 C237.683333,30.6444444 236.866667,31.0722222 236.866667,31.4611111 L236.438889,33.5222222 L236.011111,32.7055556 C233.985252,30.6189655 231.13167,29.5488725 228.233333,29.7888889 C220.481296,29.9953175 214.008064,35.76208 212.911111,43.4388889 C212.133467,47.0859971 213.0485,50.8891017 215.4,53.7833333 C217.62214,56.1940172 220.849113,57.4185381 224.111111,57.0888889 C227.681881,57.1324025 231.118423,55.7297321 233.638889,53.2 L233.211111,55.2611111 C233.157199,55.6048843 233.270836,55.9537201 233.516891,56.1997756 C233.762947,56.445831 234.111782,56.559468 234.455556,56.5055556 L240.677778,56.5055556 C241.605238,56.3365636 242.382378,55.7060536 242.738889,54.8333333 L246.627778,31.5 C246.2,31.0722222 245.811111,30.2555556 244.955556,30.2555556 M235.427778,43.5166667 C234.756534,47.3006808 231.492725,50.0749178 227.65,50.1277778 C225.976312,50.166577 224.35023,49.5689573 223.1,48.4555556 C222.201493,46.9561033 221.768379,45.2236509 221.855556,43.4777778 C222.306538,40.9437226 224.043701,38.8269537 226.44107,37.8902335 C228.838439,36.9535133 231.550507,37.331841 233.6,38.8888889 C235.108534,40.0603051 235.767565,42.0220731 235.272222,43.8666667" id="Shape" fill="#139AD6"></path>
            <path d="M179.777778,30.6444444 L172.7,30.6444444 C172.04717,30.647202 171.431343,30.9479546 171.027778,31.4611111 L161.927778,45.5388889 L157.805556,32.2777778 C157.472952,31.4573116 156.61908,30.9739874 155.744444,31.1111111 L149.133333,31.1111111 C148.316667,31.1111111 147.888889,31.9277778 147.888889,32.7833333 L155.355556,54.7166667 L148.277778,64.5944444 C147.85,65.4111111 148.277778,66.6555556 149.094444,66.6555556 L155.705556,66.6555556 C156.357065,66.6471937 156.970604,66.3475581 157.377778,65.8388889 L180.166667,33.1333333 C181.411111,31.8888889 180.594444,30.6444444 179.738889,30.6444444" id="Shape" fill="#263B80"></path>
            <path d="M252.616667,18.6277778 L246.822222,55.8833333 C246.76831,56.2271065 246.881947,56.5759423 247.128002,56.8219978 C247.374058,57.0680532 247.722893,57.1816902 248.066667,57.1277778 L253.861111,57.1277778 C254.788571,56.9587858 255.565711,56.3282759 255.922222,55.4555556 L261.755556,19.0555556 C261.809468,18.7117823 261.695831,18.3629465 261.449776,18.1168911 C261.20372,17.8708356 260.854884,17.7571987 260.511111,17.8111111 L253.9,17.8111111 C253.472222,17.3833333 253.083333,17.8111111 252.655556,18.6277778" id="Shape" fill="#139AD6"></path>
            <path d="M48.4888889,4.97777778 C45.6111111,1.67222222 40.2055556,0 32.7777778,0 L12.05,0 C10.6736306,0.185447792 9.53295967,1.15882033 9.13333333,2.48888889 L0.888888889,56.7388889 C0.797534708,57.7649892 1.53821174,58.6779167 2.56111111,58.8 L15.3944444,58.8 L18.7,38.5 L18.7,39.3166667 C19.0996263,37.9865981 20.2402973,37.0132256 21.6166667,36.8277778 L27.8388889,36.8277778 C39.8555556,36.8277778 48.9555556,31.85 51.8333333,18.2 L51.8333333,16.9555556 L51.8333333,16.9555556 C52.6018095,12.6563879 51.3869867,8.24014965 48.5277778,4.93888889" id="Shape" fill="#263B80"></path>
            <path d="M51.4444444,16.9555556 L51.4444444,18.2 C48.4888889,32.2777778 39.3888889,36.8666667 27.3722222,36.8666667 L21.1888889,36.8666667 C19.8125195,37.0521145 18.6718486,38.025487 18.2722222,39.3555556 L14.15,64.5944444 C14.1001408,65.0514184 14.2602266,65.5063459 14.5852737,65.831393 C14.9103207,66.15644 15.3652482,66.3165259 15.8222222,66.2666667 L26.5555556,66.2666667 C27.8036753,66.3582549 28.9017949,65.4488747 29.0444444,64.2055556 L29.0444444,63.7777778 L31.1055556,50.9444444 L31.1055556,50.1277778 C31.2482051,48.8844587 32.3463247,47.9750784 33.5944444,48.0666667 L35.2666667,48.0666667 C45.6111111,48.0666667 53.8944444,43.9444444 55.9555556,31.5 C57.0856062,27.2608803 56.334555,22.7404025 53.8944444,19.0944444 C53.3946519,18.0840859 52.513016,17.3144037 51.4444444,16.9555556" id="Shape" fill="#139AD6"></path>
            <path d="M48.4888889,15.5555556 C48.0611111,15.5555556 47.6722222,15.1277778 47.2444444,15.1277778 C46.7861514,15.1819371 46.3281314,15.0244927 46,14.7 C44.2355768,14.3367814 42.4330156,14.193099 40.6333333,14.2722222 L24.4944444,14.2722222 C24.0361514,14.2180629 23.5781314,14.3755073 23.25,14.7 C22.4790815,15.0967326 21.9976316,15.894134 22.0055556,16.7611111 L18.7,38.5 L18.7,39.3166667 C19.0996263,37.9865981 20.2402973,37.0132256 21.6166667,36.8277778 L27.8388889,36.8277778 C39.8555556,36.8277778 48.9555556,31.85 51.8333333,18.2 C51.779174,17.741707 51.9366184,17.283687 52.2611111,16.9555556 C51.4444444,16.5277778 51.0166667,16.1388889 50.2,16.1388889 C49.3833333,16.1388889 48.9166667,15.5555556 48.4888889,15.5555556" id="Shape" fill="#232C65"></path>
        </g>
    </g>
</svg>