
<svg width="225px" height="70px" viewBox="0 0 225 70" version="1.1" xmlns="http://www.w3.org/2000/svg" xmlns:xlink="http://www.w3.org/1999/xlink">
    <!-- Generator: Sketch 42 (36781) - http://www.bohemiancoding.com/sketch -->
    <title>visa</title>
    <desc>Created with Sketch.</desc>
    <defs></defs>
    <g id="Page-1" stroke="none" stroke-width="1" fill="none" fill-rule="evenodd">
        <g id="visa" transform="translate(0.000000, -1.000000)" fill-rule="nonzero">
            <polygon id="Shape" fill="#293688" points="80.4125 69.03125 91.875 2.09375 110.20625 2.09375 98.875 69.03125"></polygon>
            <path d="M164.10625,3.8 C158.829863,1.90799926 153.261456,0.960185255 147.65625,1 C129.5,1 116.725,10.1 116.6375,22.875 C116.6375,32.5 125.7375,37.8375 132.7375,41.075 C139.7375,44.3125 142.275,46.45625 142.23125,49.3875 C142.23125,53.7625 136.54375,55.90625 131.25,55.90625 C125.297201,56.0826063 119.383814,54.8849583 113.96875,52.40625 L111.60625,51.35625 L109.025,66.625 C115.566555,69.0312649 122.48625,70.2462863 129.45625,70.2125 C148.75,70.2125 161.2625,61.24375 161.4375,47.33125 C161.4375,39.71875 156.625,33.94375 146.0375,29.13125 C139.60625,25.9375 135.625,23.88125 135.625,20.73125 C135.625,17.58125 138.95,14.95625 146.125,14.95625 C150.833219,14.85957 155.510491,15.7384204 159.8625,17.5375 L161.525,18.325 L164.10625,3.8 Z" id="Shape" fill="#293688"></path>
            <path d="M195.3875,2.09375 C191.301261,1.62632143 187.409435,3.95783049 185.89375,7.78125 L158.68125,69.03125 L178.10625,69.03125 L181.86875,58.79375 L205.1,58.79375 L207.24375,69.03125 L224.525,69.03125 L209.43125,2.09375 L195.3875,2.09375 Z M187.03125,45.3625 L194.3375,26.6375 C194.3375,26.6375 195.86875,22.875 196.875,20.29375 L198.1,26.06875 L202.475,45.40625 L187.03125,45.3625 Z" id="Shape" fill="#293688"></path>
            <path d="M46.94375,47.94375 L45.325,38.75625 C40.6535159,26.5641725 31.6066568,16.5502354 19.95,10.66875 L36.18125,69.03125 L55.60625,69.03125 L84.74375,2.09375 L65.31875,2.09375 L46.94375,47.94375 Z" id="Shape" fill="#293688"></path>
            <path d="M0,2.09375 L0,3.14375 C23.0125,8.7 39.025,22.875 45.325,38.8 L38.675,7.78125 C37.6289345,4.07639263 34.0576573,1.67086915 30.23125,2.09375 L0,2.09375 Z" id="Shape" fill="#F7981D"></path>
        </g>
    </g>
</svg>