
<svg width="109px" height="70px" viewBox="0 0 109 70" version="1.1" xmlns="http://www.w3.org/2000/svg" xmlns:xlink="http://www.w3.org/1999/xlink">
    <!-- Generator: Sketch 42 (36781) - http://www.bohemiancoding.com/sketch -->
    <title>mastercard</title>
    <desc>Created with Sketch.</desc>
    <defs></defs>
    <g id="Page-1" stroke="none" stroke-width="1" fill="none" fill-rule="evenodd">
        <g id="mastercard" transform="translate(-0.076923, 0.000000)" fill-rule="nonzero">
            <path d="M32.7307692,2.69230769 C18.299701,2.71364607 5.63282642,12.3029745 1.69616596,26.186738 C-2.24049449,40.0705015 3.50784947,54.8813581 15.7799538,62.4742258 C28.0520581,70.0670936 43.8714695,68.6004125 54.5384615,58.8807692 L54.5384615,58.8807692 C55.7175951,57.8057754 56.8154713,56.6449063 57.8230769,55.4076923 L51.3076923,55.4076923 C50.4369785,54.3483528 49.636549,53.2331476 48.9115385,52.0692308 L60.3,52.0692308 C60.9975162,50.9597984 61.6268842,49.8089542 62.1846154,48.6230769 L47.0269231,48.6230769 C46.5130208,47.5192744 46.0635486,46.3866046 45.6807692,45.2307692 L63.5307692,45.2307692 C64.6250715,41.9310822 65.1796381,38.4764046 65.1730769,35 C65.1696092,32.673287 64.9168851,30.3536408 64.4192308,28.0807692 L44.7115385,28.0807692 C44.9564204,26.9345978 45.2619786,25.8022351 45.6269231,24.6884615 L63.4769231,24.6884615 C63.0769566,23.5049864 62.6095243,22.3453946 62.0769231,21.2153846 L47,21.2153846 C47.5483657,20.0472273 48.1687921,18.9142748 48.8576923,17.8230769 L60.2461538,17.8230769 C59.4882581,16.6205285 58.6518251,15.4693089 57.7423077,14.3769231 L51.3884615,14.3769231 C52.35372,13.2121692 53.406802,12.1230844 54.5384615,11.1192308 C48.6572713,5.72867723 40.9778102,2.72408808 33,2.69230769 L32.7307692,2.69230769 Z" id="Shape" fill="#931B1D"></path>
            <path d="M108.384615,35 C109.161433,47.015591 103.19198,58.4662305 92.8964128,64.7095607 C82.6008458,70.952891 69.6876157,70.952891 59.3920487,64.7095607 C49.0964817,58.4662305 43.1270288,47.015591 43.9038462,35 L43.9038462,35 C43.1270288,22.984409 49.0964817,11.5337695 59.3920487,5.29043926 C69.6876157,-0.952890984 82.6008458,-0.952890984 92.8964128,5.29043926 C103.19198,11.5337695 109.161433,22.984409 108.384615,35 L108.384615,35 Z" id="Shape" fill="#F16622"></path>
            <path d="M108.384615,35.3769231 C109.161433,47.3925141 103.19198,58.8431536 92.8964128,65.0864838 C82.6008458,71.3298141 69.6876157,71.3298141 59.3920487,65.0864838 C49.0964817,58.8431536 43.1270288,47.3925141 43.9038462,35.3769231 L43.9038462,35.3769231 C43.1270288,23.3613321 49.0964817,11.9106926 59.3920487,5.66736234 C69.6876157,-0.575967907 82.6008458,-0.575967907 92.8964128,5.66736234 C103.19198,11.9106926 109.161433,23.3613321 108.384615,35.3769231 L108.384615,35.3769231 Z" id="Shape" fill="#F7981D"></path>
            <path d="M32.7307692,3.06923077 C18.2910938,3.07737758 5.61010108,12.6663126 1.66835939,26.5575675 C-2.2733823,40.4488225 3.48134578,55.2690234 15.7647102,62.8600215 C28.0480745,70.4510195 43.8771639,68.9694049 54.5384615,59.2307692 L54.5384615,59.2307692 C55.7190013,58.1572085 56.8169805,56.9962305 57.8230769,55.7576923 L51.3076923,55.7576923 C50.4372112,54.7075925 49.6367644,53.6013571 48.9115385,52.4461538 L60.3,52.4461538 C60.997618,51.3274966 61.6269711,50.1676888 62.1846154,48.9730769 L47.0269231,48.9730769 C46.5137342,47.8689673 46.0642785,46.736339 45.6807692,45.5807692 L63.5307692,45.5807692 C64.63708,42.2740205 65.2007817,38.8099824 65.2,35.3230769 C65.1965323,32.996364 64.9438082,30.6767178 64.4461538,28.4038462 L44.7115385,28.4038462 C44.9568116,27.2577693 45.2623643,26.1254271 45.6269231,25.0115385 L63.4769231,25.0115385 C63.08547,23.8287419 62.6270368,22.6691758 62.1038462,21.5384615 L47.0269231,21.5384615 C47.5762051,20.3707698 48.196601,19.237873 48.8846154,18.1461538 L60.2730769,18.1461538 C59.5142841,16.9442132 58.6778929,15.7930511 57.7692308,14.7 L51.3884615,14.7 C52.3556194,13.5453022 53.4086148,12.465307 54.5384615,11.4692308 C48.6532206,6.08846726 40.9742135,3.09365448 33,3.06923077 L32.7307692,3.06923077 Z" id="Shape" fill="#CB2026"></path>
            <path d="M44.5230769,43.5884615 L44.9538462,40.6538462 L44.0653846,40.6538462 C42.8807692,40.6538462 42.7461538,40.0076923 42.8269231,39.55 L43.7692308,33.7076923 L45.5730769,33.7076923 L46.0038462,30.4769231 L44.2807692,30.4769231 L44.6307692,28.4576923 L41.2384615,28.4576923 C41.2384615,28.4576923 39.2192308,39.7653846 39.2192308,41.1384615 C39.1589884,41.8890296 39.4158167,42.630527 39.9273986,43.1830355 C40.4389805,43.7355439 41.1585605,44.0485676 41.9115385,44.0461538 C42.8270813,44.0319703 43.7350484,43.8776159 44.6038462,43.5884615 L44.5230769,43.5884615 Z" id="Shape" fill="#FFFFFF"></path>
            <path d="M45.6269231,38.0153846 C45.4195254,39.6503411 45.9722795,41.2902432 47.1270873,42.4660475 C48.281895,43.6418518 49.9115723,44.2240616 51.55,44.0461538 C52.788033,44.1198468 54.0274666,43.9270461 55.1846154,43.4807692 L55.7769231,40.1692308 C54.6258832,40.6691406 53.3952693,40.9608417 52.1423077,41.0307692 C48.4538462,41.0307692 49.1,38.3384615 49.1,38.3384615 L56.0730769,38.3384615 C56.2915529,37.2365902 56.4354692,36.121239 56.5038462,35 C56.6336872,33.6529788 56.1643088,32.3170518 55.2204591,31.3472722 C54.2766094,30.3774926 52.9538908,29.8720892 51.6038462,29.9653846 C48.1576923,29.9653846 45.6,33.6807692 45.6,37.9076923 L45.6269231,38.0153846 Z M51.6576923,33.1692308 C53.5961538,33.1692308 53.2461538,35.35 53.2461538,35.5384615 L49.3961538,35.5384615 C49.3961538,35.3230769 49.7461538,33.1692308 51.6307692,33.1692308 L51.6576923,33.1692308 Z" id="Shape" fill="#FFFFFF"></path>
            <path d="M73.3846154,43.5884615 L74.0038462,39.8461538 C73.113096,40.3050474 72.1458788,40.5970375 71.15,40.7076923 C70.1550128,40.7258212 69.2022484,40.3061415 68.5440055,39.5597873 C67.8857626,38.8134332 67.5884395,37.8156908 67.7307692,36.8307692 C67.7307692,32.7653846 69.8307692,30.5307692 72.1730769,30.5307692 C73.2946172,30.5673388 74.38444,30.9119837 75.3230769,31.5269231 L75.8884615,27.8923077 C74.6577621,27.359659 73.348108,27.0322455 72.0115385,26.9230769 C68.0538462,26.9230769 64.2038462,30.3692308 64.2038462,36.8307692 C64.2038462,41.1115385 66.2769231,43.9653846 70.3961538,43.9653846 C71.4020363,43.9351778 72.4027341,43.8089636 73.3846154,43.5884615 L73.3846154,43.5884615 Z" id="Shape" fill="#FFFFFF"></path>
            <path d="M25.65,30.1269231 C24.2340017,30.1283857 22.8297354,30.3837069 21.5038462,30.8807692 L21.0192308,33.8423077 C22.2218594,33.4252589 23.488901,33.22472 24.7615385,33.25 C26.0538462,33.25 26.9692308,33.3846154 26.9692308,34.4346154 C27.0258095,34.7190081 27.0258095,35.0117611 26.9692308,35.2961538 L25.4884615,35.2961538 C22.5269231,35.2961538 19.4038462,36.5615385 19.4038462,40.3846154 C19.2687561,41.3341803 19.558979,42.2950236 20.1971532,43.011024 C20.8353274,43.7270243 21.7565953,44.1254145 22.7153846,44.1 C24.0711386,44.1330469 25.3685612,43.5487116 26.2423077,42.5115385 L26.2423077,43.8307692 L29.2576923,43.8307692 L30.6038462,34.3538462 C30.6435252,33.1397829 30.1382379,31.9715817 29.2263375,31.1691094 C28.3144372,30.3666371 27.0914735,30.0139773 25.8923077,30.2076923 L25.65,30.1269231 Z M26.3769231,37.8269231 C26.3769231,38.4192308 26.0269231,41.1115385 23.9538462,41.1115385 C23.5997529,41.1342833 23.2523781,41.007315 22.9964133,40.7615887 C22.7404485,40.5158625 22.5994131,40.1739572 22.6076923,39.8192308 C22.6076923,38.8769231 23.1192308,37.7461538 25.6230769,37.7461538 C25.8725893,37.7039786 26.1274107,37.7039786 26.3769231,37.7461538 L26.3769231,37.8269231 Z" id="Shape" fill="#FFFFFF"></path>
            <path d="M33.5653846,43.9384615 C34.3461538,43.9384615 38.7615385,44.1269231 38.7615385,39.5769231 C38.7615385,35.0269231 34.6692308,36.1576923 34.6692308,34.4346154 C34.6692308,33.5730769 35.3423077,33.3038462 36.5538462,33.3038462 C37.0384615,33.3038462 38.8961538,33.4653846 38.8961538,33.4653846 L39.3269231,30.4230769 C38.2794177,30.2287915 37.2152615,30.1386087 36.15,30.1538462 C33.6192308,30.1538462 31.0346154,31.1769231 31.0346154,34.65 C31.0346154,38.5807692 35.3423077,38.2038462 35.3423077,39.8461538 C35.3423077,40.95 34.1307692,41.0576923 33.2153846,41.0576923 C32.1810912,41.0213599 31.1570087,40.8401064 30.1730769,40.5192308 L29.7153846,43.5346154 C30.962128,43.9097496 32.266563,44.0557004 33.5653846,43.9653846 L33.5653846,43.9384615 Z" id="Shape" fill="#FFFFFF"></path>
            <path d="M101.815385,27.4076923 L101.088462,32.0115385 C100.258841,30.9247464 98.9821408,30.2715508 97.6153846,30.2346154 C94.4653846,30.2346154 91.8538462,34.0307692 91.8538462,38.3115385 C91.8538462,41.0038462 93.2538462,43.8846154 96.1076923,43.8846154 C97.3304189,43.8883661 98.4963893,43.3690683 99.3115385,42.4576923 L99.15,43.6961538 L102.488462,43.6961538 L105.180769,27.3269231 L101.815385,27.4076923 Z M100.307692,36.4 C100.307692,38.2038462 99.4192308,40.6269231 97.6153846,40.6269231 C96.3769231,40.6269231 95.8115385,39.5769231 95.8115385,37.9346154 C95.8115385,35.2423077 96.9961538,33.4923077 98.5038462,33.4923077 C100.011538,33.4923077 100.388462,34.3538462 100.388462,36.3461538 L100.307692,36.4 Z" id="Shape" fill="#FFFFFF"></path>
            <polygon id="Shape" fill="#FFFFFF" points="7.04615385 43.7769231 9.14615385 31.4192308 9.44230769 43.7769231 11.8115385 43.7769231 16.2269231 31.4192308 14.1538462 43.7769231 17.7884615 43.7769231 20.4807692 27.4076923 15.0961538 27.4076923 11.6769231 37.45 11.4615385 27.4076923 6.50769231 27.4076923 3.81538462 43.7769231"></polygon>
            <path d="M59.9230769,43.8038462 C60.9192308,38.1230769 61.1076923,33.4923077 63.5038462,34.3269231 C63.7155602,32.9409252 64.1425027,31.5965106 64.7692308,30.3423077 C64.5453928,30.3206846 64.3199918,30.3206846 64.0961538,30.3423077 C62.5615385,30.3423077 61.4038462,32.4423077 61.4038462,32.4423077 L61.7,30.5038462 L58.55,30.5038462 L56.4230769,43.9653846 L59.9230769,43.8038462 Z" id="Shape" fill="#FFFFFF"></path>
            <path d="M81.3,30.1269231 C79.8840017,30.1283857 78.4797354,30.3837069 77.1538462,30.8807692 L76.6692308,33.8423077 C77.8718594,33.4252589 79.138901,33.22472 80.4115385,33.25 C81.6769231,33.25 82.6192308,33.3846154 82.6192308,34.4346154 C82.676522,34.7189375 82.676522,35.0118317 82.6192308,35.2961538 L81.1384615,35.2961538 C78.1769231,35.2961538 75.0538462,36.5615385 75.0538462,40.3846154 C74.9187561,41.3341803 75.208979,42.2950236 75.8471532,43.011024 C76.4853274,43.7270243 77.4065953,44.1254145 78.3653846,44.1 C79.7219382,44.1370184 81.0210054,43.5519423 81.8923077,42.5115385 L81.8923077,43.8307692 L84.9076923,43.8307692 L86.2538462,34.3538462 C86.2935252,33.1397829 85.7882379,31.9715817 84.8763375,31.1691094 C83.9644372,30.3666371 82.7414735,30.0139773 81.5423077,30.2076923 L81.3,30.1269231 Z M82.0269231,37.8269231 C82.0269231,38.4192308 81.6769231,41.1115385 79.6038462,41.1115385 C79.2475831,41.1430401 78.8950962,41.0189868 78.6370898,40.7713006 C78.3790835,40.5236145 78.2407522,40.1764824 78.2576923,39.8192308 C78.2576923,38.8769231 78.7692308,37.7461538 81.2730769,37.7461538 C81.5225893,37.7039786 81.7774107,37.7039786 82.0269231,37.7461538 L82.0269231,37.8269231 Z" id="Shape" fill="#FFFFFF"></path>
            <path d="M88.7576923,43.8038462 C89.7538462,38.1230769 89.9423077,33.4923077 92.3384615,34.3269231 C92.5471177,32.9402125 92.9742093,31.5953284 93.6038462,30.3423077 C93.3800002,30.3208504 93.1546152,30.3208504 92.9307692,30.3423077 C91.3961538,30.3423077 90.2384615,32.4423077 90.2384615,32.4423077 L90.5346154,30.5038462 L87.3846154,30.5038462 L85.2576923,43.9653846 L88.7576923,43.8038462 Z" id="Shape" fill="#FFFFFF"></path>
        </g>
    </g>
</svg>